<svg xmlns="http://www.w3.org/2000/svg" viewBox="0 0 152.23 266.53"><defs><style>.cls-1{fill:#f46c0f}</style></defs><g id="Layer_2" data-name="Layer 2"><g id="Layer_1-2" data-name="Layer 1"><path class="cls-1" d="M132.1 245.67a3.6 3.6 0 0 1 0 .48 21.27 21.27 0 0 0-.69 2.43c0 .54-.55 1.06-.85 1.6a30.93 30.93 0 0 1-5.51 7.33 9.1 9.1 0 0 1-1.38 1.13 38.87 38.87 0 0 1-8.06 4.12c-2.21.78-4.52 1.3-6.74 2a3.53 3.53 0 0 1-1 .2c-3 .11-5.92.92-9 .7a13.08 13.08 0 0 0-3 .29 33.68 33.68 0 0 1-5.18.38c-2.14 0-4.28.07-6.43.1h-2c-1.33 0-2.67.12-4 .07-1.8-.07-3.6-.23-5.4-.36-.6 0-1.2-.14-1.8-.15-3.74-.06-7.48-.21-11.22-.11a7.75 7.75 0 0 1-2.17-.26 31.43 31.43 0 0 0-5.69-.94 2.89 2.89 0 0 1-.79-.12c-2.88-1.12-5.78-2.19-7.61-4.47a8.81 8.81 0 0 0-3.06-2.61c-.15-.71-.26-1.38-.45-2a3 3 0 0 1-.07-1.58 16.53 16.53 0 0 0 .2-2.05c.09-.89.2-1.79.3-2.68 0-.26.06-.53.06-.79 0-1.67 0-3.35.07-5a35.41 35.41 0 0 1 .44-4.89c.41-2.19.11-4.44.94-6.59a10.53 10.53 0 0 1 .44-3.76 11.93 11.93 0 0 1 .91-4c.33-3 1.52-5.89 2.3-8.83a28.88 28.88 0 0 0 1-6.26c.09-2.11.3-4.22.4-6.33.06-1.37 0-2.75 0-4.13a25.82 25.82 0 0 1 .52-5.51 17.11 17.11 0 0 0 .24-2.83 79.13 79.13 0 0 1 1.24-9.29c.08-.52.16-1 .19-1.57a15.55 15.55 0 0 1 1-5.11c1.54-3.75 1.93-7.64 2.46-11.52.23-1.68.44-3.36.67-5 0-.16 0-.32.06-.47.15-2.27.26-4.54.46-6.81s.48-4.52.72-6.78v-.32a87.4 87.4 0 0 0 .49-10.46c-.1-1.9 0-3.81-.08-5.71-.09-1.74-.38-3.47-.51-5.21a8.74 8.74 0 0 1-.09-3.45.69.69 0 0 0 0-.47c-.85-1.79-.38-3.64-.49-5.47-.25-4.14-.87-8.22-3.16-12a9.08 9.08 0 0 0-.58-.83 2.81 2.81 0 0 0-.45-.33c-.56 0-1.29-.07-2-.07-3.62 0-7.25 0-10.87.07-1.67 0-3.34.16-5 .2a44.42 44.42 0 0 1-6.63-.12c-1.85-.23-3.73-.31-5.6-.45h-.8c-3-.43-6.12-.71-9.08-1.35S4.88 95.53 4 93.2a10.64 10.64 0 0 1-.85-3.89c0-1.05-.24-2.1-.29-3.16-.06-1.37 0-2.75 0-4.12s-.25-2.84-.33-4.27-.12-3-.14-4.44a22.94 22.94 0 0 0-.24-4 14.75 14.75 0 0 1-.15-2.8 73.56 73.56 0 0 0-.66-8.22C1 55.77.54 53.26.2 50.74a30.74 30.74 0 0 1-.2-3.16 6.06 6.06 0 0 1 .78-3.09 20.09 20.09 0 0 1 1.74-2.67C4 39.92 5.44 38 7 36.18c1.94-2.18 4-4.27 6-6.37 2.39-2.48 4.81-5 7.27-7.39 1.8-1.77 3.69-3.49 5.54-5.23.77-.73 1.51-1.48 2.33-2.18 2.52-2.13 5-4.29 7.62-6.33a18.34 18.34 0 0 1 7.93-3.6c1.7-.32 3.34-.76 5-1.22A80.12 80.12 0 0 1 59 1.66 30.6 30.6 0 0 0 62.47 1a15.63 15.63 0 0 1 3.75-.49c2.21 0 4.41-.16 6.62-.09 1.33 0 2.67-.19 4-.16 1.82 0 3.61-.11 5.41-.21C83.52 0 84.79 0 86.05 0c4.54.15 9.1.11 13.63.55 1 .1 2 .12 3 .17l7.82.4c2.07.11 4.14.26 6.21.35a155.07 155.07 0 0 1 15.84 2 34.29 34.29 0 0 1 8.26 2c.88.37 1.82.65 2.75.94a5.32 5.32 0 0 1 2.85 1.9c.39.53 1.17.88 1.61 1.4a14.33 14.33 0 0 1 2.14 3.57 27.73 27.73 0 0 1 1.8 6.64A5.14 5.14 0 0 1 152 21a22.06 22.06 0 0 0 .17 6.33 1.71 1.71 0 0 1 0 .47c-.05 1.11-.16 2.21-.16 3.32s.22 2.11.15 3.16c-.26 4.06-.35 8.12-.37 12.18 0 3.43-.32 6.85-.62 10.27-.19 2.22-.73 4.4-.86 6.6-.15 2.44-.88 4.81-1 7.24a9.69 9.69 0 0 1-.35 1.72c-.94 4-1.17 8.08-2.29 12.05a33.3 33.3 0 0 1-.89 6.13c-.4 2.25-.76 4.5-1.1 6.75-.21 1.36-.36 2.73-.54 4.1a6.57 6.57 0 0 1-.17 1.26c-.59 1.75-.43 3.56-.64 5.34-.23 2-.47 4-.67 6-.19 1.78-.35 3.57-.5 5.36s-.3 3.79-.47 5.69a78.41 78.41 0 0 1-1 8 12.51 12.51 0 0 0-.12 2.06c-.09 3.12-.42 6.22-.82 9.32q-.44 3.46-.9 6.92a1.37 1.37 0 0 1 0 .32c-.73 1.93-.64 4-1 5.93s-.22 3.91-.52 5.84c-.6 3.74-.25 7.5-.48 11.25a50.83 50.83 0 0 0 .37 6.46 6.77 6.77 0 0 1-.24 3.12c0 .1-.12.23-.08.3.64 1.08-.09 2.16 0 3.24a6.83 6.83 0 0 1-.38 2.66 7.55 7.55 0 0 0-.35 3.61 13.78 13.78 0 0 1 0 2.78s-.1.08-.1.11a1.17 1.17 0 0 0 .1.24 18.82 18.82 0 0 1-.41 3.91 11.4 11.4 0 0 0-.12 2.5c0 .73-.09 1.46-.2 2.18a18.18 18.18 0 0 0-.61 3.9 8.05 8.05 0 0 1-.61 4.17c.45.92-.1 1.83 0 2.77a5.77 5.77 0 0 1-.42 2.76c-.59 1.44-.4 2.91-.63 4.36-.17 1.09 0 2.21-.63 3.25a.64.64 0 0 0-.1.3v3.61c0 .89-.13 1.77-.18 2.66-.08 1.35 0 2.7-.24 4a34.51 34.51 0 0 1-.39 3.74 13.4 13.4 0 0 0 0 3.15l.56 1s-.11.08-.1.11a1.13 1.13 0 0 0 .1.24zm-33.44 6.66a8.28 8.28 0 0 1 1-.11c.67 0 1.34.1 2 .06s1.28-.24 1.92-.34a27.48 27.48 0 0 0 7-2.3 3.84 3.84 0 0 0 1.47-1 10.36 10.36 0 0 0 1.64-2.88 28.39 28.39 0 0 0 .73-3.42 45.84 45.84 0 0 0 .74-6.3c.13-2.59.29-5.17.44-7.76 0-.47 0-.95.07-1.42q.48-3.62 1-7.23c.26-1.78.62-3.56.81-5.34.34-3.16.59-6.32.88-9.48.09-1 .24-2 .34-3a34.15 34.15 0 0 0 .48-5.37c-.22-3.82.41-7.59.8-11.38a28 28 0 0 0 .24-5.68 16.87 16.87 0 0 1 .19-3.78c.19-1.47.55-2.92.77-4.39a3.83 3.83 0 0 1 1.86-2.66l.61-1.66c-.42-.63-.83-1.31-.54-2a6.2 6.2 0 0 0 .49-2.47c0-.87.52-1.77-.18-2.61.42-.93-.27-1.62-.91-2.33l.83-.45a2.92 2.92 0 0 1 .27-.94 3.12 3.12 0 0 0 .49-2 17.23 17.23 0 0 1 .23-4.24c.05-.23-.18-.5-.29-.75l.76-.32-.76-1.33c.51-.73 1.26-1.42.58-2.31 0-.06 0-.2.11-.29a1.75 1.75 0 0 0 .17-1.38 4.49 4.49 0 0 1 .25-1.86 30 30 0 0 0 .83-3.53 20.49 20.49 0 0 1 .69-4 1.76 1.76 0 0 0 .07-.93c-.16-.69.49-1.4-.14-2.07-.05-.06 0-.21.06-.3.43-.8.05-1.55-.18-2.31l.93.18c.47-1.23.94-2.38 0-3.37.13-.94.18-1.73.35-2.5s.53-1.54 0-2.31c-.07-.1.09-.28.12-.43a4.66 4.66 0 0 0 .18-.93 5.68 5.68 0 0 1 .64-2.61 3.45 3.45 0 0 0 .43-2.15 2.85 2.85 0 0 1 .19-2.16 1.4 1.4 0 0 0 .24-1c-.08-.32-.48-.59-.67-.81.26-.24.47-.45.69-.64.61-.53-.08-1.35.67-1.85 0 0 0-.19-.07-.28a2.21 2.21 0 0 1 .3-2.12 5.08 5.08 0 0 0 .37-1l-1.44-.73 1.33-.83.41-1.42-.43-1.44c.51-1 .33-2.07.57-3.07a9.84 9.84 0 0 0-.07-2.79l1.41-3.09c-.4-1.26.39-2.39.68-3.56a4.74 4.74 0 0 0 .13-2.8 1.46 1.46 0 0 1 0-1.24c.7-1 .61-2 .89-3.06s.36-2.19.58-3.28c.29-1.45.8-2.88.47-4.37a19 19 0 0 0 .51-6.1 1.43 1.43 0 0 1 .14-.62 6.64 6.64 0 0 0-.24-4.48c.76-.62 1-1.37-.08-2.06l.78-1a3.1 3.1 0 0 1 0-2.66 2.3 2.3 0 0 0 .14-1.09.93.93 0 0 0-.91-.91l-.7-1.55a11 11 0 0 1 .86-2.44c.33-.5.19-1.2.26-1.81l-.61-.38a3 3 0 0 0-.59-3l.78-1.64.08.09-.1-.07-.19-1 1-.37c0-.28 0-.58-.11-.79a3.65 3.65 0 0 1-.31-3.06 17.86 17.86 0 0 0 .41-2.67 35 35 0 0 0-.17-6.61c-.45-2.77-.74-5.56-1.3-8.32a4.66 4.66 0 0 1 .37-3.57 10 10 0 0 0-1.76-3 14.35 14.35 0 0 0-2.75-.69c-2.19-.14-4.41-.1-6.61-.13a12.27 12.27 0 0 1-2.2-.05 3.18 3.18 0 0 0-2.18.18 6.45 6.45 0 0 0-1.64-.36 27.49 27.49 0 0 1-5-.37 6 6 0 0 0-2.22.21c-2.25-.67-3.65-.6-5.15.22l-.53-.66c-1.87 0-3.67-.08-5.48-.09a27.77 27.77 0 0 0-4.2 0 4.52 4.52 0 0 1-1-.08c-.53 0-1.06-.12-1.59-.13a11.48 11.48 0 0 1-2.88-.27 2.84 2.84 0 0 0-1.19-.07 26.74 26.74 0 0 1-4.39 0 6.06 6.06 0 0 0-2.9.52 4 4 0 0 0-2.32-.32c-1.37.16-2.78.17-4.27.25l-.55.59-1.22-1a6.47 6.47 0 0 1-3 .28 23.09 23.09 0 0 0-3.21-.11c-1.43.08-2.84.29-4.21.44l-.31.52-1.29-.85c-1.21.48-2.65.3-3.75 1a1.76 1.76 0 0 1-.76.2l-4.58.37-1.45.14L49.1 15c-2 1.81-3.95 3.59-5.84 5.44s-3.86 3.91-5.75 5.89c-.52.55-.88 1.2-1.45 1.71-2.56 2.3-5 4.67-7.4 7.08-1.77 1.79-3.59 3.55-5.38 5.33-.71.7-1.43 1.4-2.09 2.13-1.13 1.24-2.19 2.53-3.36 3.76a27.23 27.23 0 0 0-2.4 2.72 2.72 2.72 0 0 0-.58 1.49c0 .84-.15 1.69-.13 2.53.12 3.79 0 7.57.11 11.36.07 1.74 0 3.48 0 5.22v7a39.26 39.26 0 0 0 .28 4.27c.25 1.94.6 3.88 1 5.8a3.48 3.48 0 0 0 1.12 2.32c.84.12 1.82.26 2.81.39.59.07 1.19.14 1.8.17 3.06.13 6.11.38 9.2.23a78.3 78.3 0 0 1 9.63-.41c2.29.17 4.55 0 6.82-.08a17.29 17.29 0 0 1 1.8-.08 19.48 19.48 0 0 0 4.78.2 4.39 4.39 0 0 1 .8.07c.8 0 1.6 0 2.39.1s1.55.21 2.33.31l.53.07a18.9 18.9 0 0 0 1.72.91 6 6 0 0 1 2.56 2c.65.83 1.35 1.64 2.09 2.43a8.13 8.13 0 0 1 2.1 3.34 10.1 10.1 0 0 1 .65 3.6 1.7 1.7 0 0 0 .08.79 19.76 19.76 0 0 1 1 4.32c.12.71.22 1.43.36 2.14s-.24 1.48.31 2.15c-.39 1.23 0 2.48-.18 3.71a2.17 2.17 0 0 0-.06.78 6.24 6.24 0 0 1 .39 3.12c-.33 1.17.76 2.12.62 3.25 0 .2.1.42.1.63a39.93 39.93 0 0 0 0 4.7c.08.7-.14 1.35 0 2a18.5 18.5 0 0 1 .32 2.95c0 1.88.42 3.77 0 5.65a2 2 0 0 0 .08.62 9.6 9.6 0 0 1 .13 1.24c0 .83-.07 1.67-.12 2.5-.06 1.25.28 2.51-.28 3.74a.83.83 0 0 0 .08.62 2.62 2.62 0 0 1-.06 1.88 6.13 6.13 0 0 0-.13 3.3c0 .17-.13.38-.2.57l-.06-.07.08.05c0 .89-.05 1.78-.16 2.66-.15 1.3-.69 2.57-.32 3.89a1.57 1.57 0 0 1-.07.63c-.2 1.29-.42 2.59-.61 3.88-.08.57 0 1.15-.15 1.71a12.63 12.63 0 0 0-.42 4.38c0 .25-.12.51-.16.77a28.5 28.5 0 0 0-.46 3.76A6.24 6.24 0 0 1 69 177c-.92 2.28-.55 4.69-1.3 7 .32 1.64-.57 3.21-.44 4.86a3.22 3.22 0 0 1-.42 1.69c-.33.62.31 1.08.19 1.67-.46 2.27-.26 4.61-1.22 6.82a1.23 1.23 0 0 0 0 .62 10.7 10.7 0 0 1-.38 2.94c-.5 3-1.35 6-1.61 9.06-.15 1.73-.24 3.47-.46 5.19-.19 1.49.48 3-.28 4.48-.06.12.05.31.09.46a11.65 11.65 0 0 1 .28 2.82 16.08 16.08 0 0 0 .33 4.24c.07.25.12.6 0 .77-.43.47-.18.89-.08 1.35a7.77 7.77 0 0 1 .07 1.26c0 .47.09.94.11 1.41s0 .83 0 1.25a3.54 3.54 0 0 0 0 .93c.19.66 0 1.33.4 2 .27.46-.1 1.13 0 1.7.12 1.2.32 2.39.49 3.59a1.14 1.14 0 0 1 0 .47 13.57 13.57 0 0 0-.07 4.85v1.41c0 .87 0 1.74.06 2.65.44 0 .77.08 1.09.07 1.92-.08 3.82.1 5.74.11 2.31 0 4.6.6 6.95.37a25.91 25.91 0 0 0 5.57 0c1.53 0 3.07-.1 4.6-.06a15.29 15.29 0 0 0 5-.58 13.72 13.72 0 0 0 4.69-.22c.08 0 .23.09.34.14l-.12.06zM136.06 44c0 .67 0 .67.69.66zm.21 8.37c.06-.08.15-.17.16-.25s-.14-.1-.21-.15-.15.17-.17.26.14.13.22.18z"/><path class="cls-1" d="M50.64 29.33c7.72 0 7.73-12 0-12s-7.73 12 0 12z"/><path class="cls-1" d="M48.2 13.12Q26.18 28.9 5.31 46.2c-4.51 3.74.32 12.17 5.84 10a382.83 382.83 0 0 0 47.22-22L50.15 26a76.52 76.52 0 0 1-15.81 21.9l8.49 8.49 11.72-13c5.16-5.7-3-14-8.49-8.49l-28 27.69 9.42 7.27q5.13-10.35 11.11-20.22L27.67 45 21 63c-1.87 5 4.56 9.29 8.81 6.78a263.93 263.93 0 0 1 43.65-20.64l-5.84-1.54.78.88-1.76-4.24c.09 1.26-3.29 4.81-4.1 6l-5.62 8-10.69 15.01c-3.49 4.93 3.33 11.37 8.21 8.21q22-14.29 45.09-26.92l-7.27-9.42A126.75 126.75 0 0 1 61.62 65l8.21 8.21a167.11 167.11 0 0 0 16.23-48.35c.68-4-2.66-9.14-7.38-7.38L45 30.05l5.84 10a168.48 168.48 0 0 1 26-26.23L66.56 9.6a27.43 27.43 0 0 1-3.21 11.34c-2.33 4.47 1.54 10.37 6.78 8.81a254.56 254.56 0 0 1 35.9-7.9l-5.84-10q-7.73 6.77-15.91 13c-6.11 4.6-1 13.74 6.06 10.36a241.37 241.37 0 0 1 30.79-12.09l-6.78-8.81a140.9 140.9 0 0 1-17.21 22.24C92.38 41.6 98.35 49 104.41 46l29.11-14.72-8.81-6.78c-1.39 4.06-6.13 6.87-9.39 9.34l-13.93 10.52-27.08 20.52c-6 4.53-.8 14.39 6.06 10.36l17.73-10.4L92 54.47Q73 69.11 52.67 81.78l6.06 10.36 18.15-13c5-3.6 2.14-13.78-4.62-11a132.42 132.42 0 0 1-44.64 10l5.18 9a36.63 36.63 0 0 1 5.76-9.07l-10-5.84a6 6 0 0 1-1.85 3.7c-5.34 5.58 3.13 14.07 8.49 8.49a17.46 17.46 0 0 0 4.94-9c1-5.38-5.76-10.73-10-5.84a47.3 47.3 0 0 0-7.64 11.5c-1.76 3.85.24 9.27 5.18 9a141.93 141.93 0 0 0 47.8-10.29l-4.62-11-18.15 13c-6.17 4.41-.61 14.52 6.06 10.36q20.32-12.7 39.32-27.32c5.91-4.56.83-14.4-6.06-10.36L74.31 64.88l6.06 10.36 31.72-24c8.57-6.5 20.51-12.82 24.19-23.54 1.82-5.29-4.47-9-8.81-6.78L98.36 35.61l7.27 9.39a156.88 156.88 0 0 0 19.09-24.72c2.71-4.36-1.8-10.4-6.78-8.81A264.34 264.34 0 0 0 84.28 24.8l6.06 10.36c6.29-4.73 12.42-9.65 18.34-14.84 5-4.4-.57-10.8-5.84-10a254.56 254.56 0 0 0-35.9 7.9L73.71 27a42 42 0 0 0 4.85-17.4c.33-5.69-6.56-7.24-10.24-4.24a168.48 168.48 0 0 0-26 26.23c-3.26 4.13-.45 12.37 5.84 10l33.71-12.53-7.38-7.38a156.81 156.81 0 0 1-15 45.5c-2.83 5.55 2.78 10.76 8.21 8.21a137.4 137.4 0 0 0 33.05-21.79C106 49 99.3 41 93.47 44.18q-23 12.65-45.09 26.92l8.21 8.21 15.19-21.47c4-5.72 10.23-12.12 4.33-18.73a5.86 5.86 0 0 0-5.84-1.54 281.13 281.13 0 0 0-46.5 21.84l8.81 6.78 6.65-18c2.42-6.53-7.54-10.27-11-4.62q-6 9.88-11.11 20.22c-2.93 5.93 4.38 12.27 9.42 7.27l28-27.69-8.49-8.49-11.72 13c-5.16 5.71 2.93 13.93 8.49 8.49A86.09 86.09 0 0 0 60.52 32c2.52-5.27-2.69-11.27-8.21-8.21A360 360 0 0 1 8 44.66l5.84 10q19.63-16.3 40.42-31.18c6.22-4.48.24-14.87-6.06-10.36z"/><path class="cls-1" d="M118.43 47c-24.74 17.71-51.64 36.55-63.62 65.65-2.07 5 4.67 9.23 8.81 6.78L131 79.62l-8.21-8.21-35.8 49.31c-3.82 5.26 3.36 10.63 8.21 8.21l14.1-7.05-8.3-8.22c-8.68 15.77-27.12 26.55-29.86 45.42-.7 4.82 3.91 9.77 8.81 6.78 11-6.71 21.94-13 34.72-15.47l-7.33-7.39a77.69 77.69 0 0 1-18.17 25.82c-5.61 5.43 2.71 13.5 8.49 8.49l22-19.1-8.49-8.49c-15.46 15.41-35.8 25.12-49 42.89-3.9 5.26 3.4 10.57 8.21 8.21A136.64 136.64 0 0 1 93.76 192L87 183.19a126 126 0 0 1-15.74 25.19c-4 5 1 13.28 7.27 9.42a174.08 174.08 0 0 1 33.21-16l-5.84-10L61 233.52c-5.32 4.95 1.43 12.09 7.27 9.42a175.13 175.13 0 0 1 48-13.7l-6.78-8.81c-5.27 7.13-10.89 14-16.79 20.58-5.12 5.74 3.29 14.24 8.49 8.49a51.69 51.69 0 0 1 20.22-13.7l-5.84-10a175.46 175.46 0 0 1-20.9 22.14l8.49 8.49 8.72-8.88c3.95-4 0-12.2-5.84-10a344 344 0 0 1-34.4 10.65l7.36 7.38 5.53-13.38c2.53-6.13-6-9.2-10-5.84l-11.07 9.28 10 5.84 6.27-16.71c1.34-3.57-2.13-7.79-5.79-7.6l-8.71.46 6 6a18 18 0 0 1 1.61-6.3c3.2-7-7.14-13.07-10.36-6.06a34.63 34.63 0 0 0-3.25 12.36c-.23 3.12 2.93 6.16 6 6l8.71-.46-5.79-7.6-6.27 16.71c-2.31 6.15 5.92 9.28 10 5.84L83 244.85 73 239l-5.53 13.38c-1.84 4.44 3.4 8.4 7.38 7.38a344 344 0 0 0 34.41-10.73l-5.84-10-8.72 8.88c-5.45 5.56 2.75 13.6 8.49 8.49a175.46 175.46 0 0 0 20.9-22.14c3.24-4.1.44-12.43-5.84-10-9.7 3.71-18.51 9-25.51 16.79l8.49 8.49q9.87-11.07 18.67-23c3.53-4.77-2.29-9.46-6.78-8.81a185.23 185.23 0 0 0-50.84 14.91l7.25 9.36 44.84-41.71c4.25-4-.15-12.06-5.84-10a189 189 0 0 0-36.08 17.17l7.27 9.42a138.5 138.5 0 0 0 17.62-27.61c2.15-4.54-1.41-10.32-6.78-8.81a154 154 0 0 0-26.23 10l8.21 8.21c12.4-16.72 32.51-25.92 47.1-40.46 5.53-5.51-2.71-13.5-8.49-8.49l-22 19.1 8.49 8.49a91.87 91.87 0 0 0 21.26-31.11c1.92-4.63-3.45-8.13-7.38-7.38-13.72 2.62-25.81 9.48-37.59 16.68l8.81 6.78c1.24-8.55 6.62-15.11 12.17-21.41 5.9-6.71 12.14-13.26 16.48-21.14 3-5.44-2.91-10.86-8.21-8.21l-14.1 7.05 8.21 8.21 35.8-49.31c3.65-5-3.34-11.09-8.21-8.21l-67.31 39.8 8.81 6.78c10.62-25.7 36.36-42.9 58.11-58.45 6.23-4.45.24-14.86-6.06-10.36z"/><path class="cls-1" d="M117.43 114.08c-8.64 11.06-19.83 19.14-32.55 24.92l6.06 10.36q11.4-5.57 22.5-11.69c6.76-3.73.72-14.1-6.06-10.36q-11.1 6.13-22.5 11.69c-7 3.42-.88 13.52 6.06 10.36 13.51-6.15 25.8-15.06 35-26.8 4.7-6-3.73-14.57-8.49-8.49z"/><path class="cls-1" d="M81.87 128.16a61.14 61.14 0 0 0-16.52 12.89c-5.13 5.75 3.33 14.26 8.49 8.49a51.3 51.3 0 0 1 14.09-11c6.79-3.69.74-14.05-6.06-10.36z"/></g></g></svg>