<svg id="Layer_1" data-name="Layer 1" xmlns="http://www.w3.org/2000/svg" viewBox="0 0 300 142"><defs><style>.cls-1{fill:#6ed830;}</style></defs><title>Artboard 1</title><path class="cls-1" d="M298,78.53q-46.35-6.6-92.42-14.75-37.31-6.6-74.44-14.23a138.15,138.15,0,0,1,29-42.6,336.57,336.57,0,0,0-48.91-.11A342.07,342.07,0,0,0,2.78,32.94,517.42,517.42,0,0,0,73,101.51a516.33,516.33,0,0,0,52,36.82,135.6,135.6,0,0,1-3.42-55.13q43,14.38,86.53,27.13,39.12,11.46,78.63,21.59A90.88,90.88,0,0,1,298,78.53Z"/></svg>